HIERARCHY
ROOT Hips
{
    OFFSET 0.000000 0.000000 0.000000
    CHANNELS 6 Xposition Yposition Zposition Zrotation Xrotation Yrotation
    JOINT Spine
    {
        OFFSET -0.000000 7.305679 0.000000
        CHANNELS 3 Zrotation Xrotation Yrotation
        JOINT Spine1
        {
            OFFSET -0.000000 20.356625 0.000000
            CHANNELS 3 Zrotation Xrotation Yrotation
            JOINT Neck
            {
                OFFSET -0.000000 22.138498 0.000000
                CHANNELS 3 Zrotation Xrotation Yrotation
                JOINT Head
                {
                    OFFSET -0.000000 13.809516 1.781873
                    CHANNELS 3 Zrotation Xrotation Yrotation
                    End Site
                    {
                        OFFSET -0.000000 17.818729 0.000000
                    }
                }
            }
            JOINT LeftShoulder
            {
                OFFSET 3.599131 17.989975 0.023592
                CHANNELS 3 Zrotation Xrotation Yrotation
                JOINT LeftArm
                {
                    OFFSET 12.560995 0.000000 0.000000
                    CHANNELS 3 Zrotation Xrotation Yrotation
                    JOINT LeftForeArm
                    {
                        OFFSET 22.903347 0.000000 0.000000
                        CHANNELS 3 Zrotation Xrotation Yrotation
                        JOINT LeftHand
                        {
                            OFFSET 21.865294 0.000000 0.000000
                            CHANNELS 3 Zrotation Xrotation Yrotation
                            JOINT LeftHandThumb1
                            {
                                OFFSET 1.853706 -2.106484 2.949078
                                CHANNELS 3 Zrotation Xrotation Yrotation
                                JOINT LeftHandThumb2
                                {
                                    OFFSET 2.049154 0.000000 1.336405
                                    CHANNELS 3 Zrotation Xrotation Yrotation
                                    JOINT LeftHandThumb3
                                    {
                                        OFFSET 2.672809 0.000000 0.000000
                                        CHANNELS 3 Zrotation Xrotation Yrotation
                                        End Site
                                        {
                                            OFFSET 2.381303 0.000000 0.000000
                                        }
                                    }
                                }
                            }
                            JOINT LeftHandIndex1
                            {
                                OFFSET 7.583345 0.000000 2.949078
                                CHANNELS 3 Zrotation Xrotation Yrotation
                                JOINT LeftHandIndex2
                                {
                                    OFFSET 4.454682 0.000000 0.000000
                                    CHANNELS 3 Zrotation Xrotation Yrotation
                                    JOINT LeftHandIndex3
                                    {
                                        OFFSET 2.227341 0.000000 0.000000
                                        CHANNELS 3 Zrotation Xrotation Yrotation
                                        End Site
                                        {
                                            OFFSET 1.984419 0.000000 0.000000
                                        }
                                    }
                                }
                            }
                            JOINT LeftHandMiddle1
                            {
                                OFFSET 7.583345 0.000000 0.977409
                                CHANNELS 3 Zrotation Xrotation Yrotation
                                JOINT LeftHandMiddle2
                                {
                                    OFFSET 4.900151 0.000000 0.000000
                                    CHANNELS 3 Zrotation Xrotation Yrotation
                                    JOINT LeftHandMiddle3
                                    {
                                        OFFSET 2.672809 0.000000 0.000000
                                        CHANNELS 3 Zrotation Xrotation Yrotation
                                        End Site
                                        {
                                            OFFSET 2.381303 0.000000 0.000000
                                        }
                                    }
                                }
                            }
                            JOINT LeftHandRing1
                            {
                                OFFSET 7.162047 0.000000 -0.977409
                                CHANNELS 3 Zrotation Xrotation Yrotation
                                JOINT LeftHandRing2
                                {
                                    OFFSET 4.454682 0.000000 0.000000
                                    CHANNELS 3 Zrotation Xrotation Yrotation
                                    JOINT LeftHandRing3
                                    {
                                        OFFSET 2.227341 0.000000 0.000000
                                        CHANNELS 3 Zrotation Xrotation Yrotation
                                        End Site
                                        {
                                            OFFSET 1.984419 0.000000 0.000000
                                        }
                                    }
                                }
                            }
                            JOINT LeftHandPinky1
                            {
                                OFFSET 6.740750 0.000000 -2.949078
                                CHANNELS 3 Zrotation Xrotation Yrotation
                                JOINT LeftHandPinky2
                                {
                                    OFFSET 3.563746 0.000000 0.000000
                                    CHANNELS 3 Zrotation Xrotation Yrotation
                                    JOINT LeftHandPinky3
                                    {
                                        OFFSET 1.781873 0.000000 0.000000
                                        CHANNELS 3 Zrotation Xrotation Yrotation
                                        End Site
                                        {
                                            OFFSET 1.587536 0.000000 0.000000
                                        }
                                    }
                                }
                            }
                        }
                    }
                }
            }
            JOINT RightShoulder
            {
                OFFSET -3.506995 17.989975 0.023592
                CHANNELS 3 Zrotation Xrotation Yrotation
                JOINT RightArm
                {
                    OFFSET -12.560995 0.000000 0.000000
                    CHANNELS 3 Zrotation Xrotation Yrotation
                    JOINT RightForeArm
                    {
                        OFFSET -22.903347 0.000000 0.000000
                        CHANNELS 3 Zrotation Xrotation Yrotation
                        JOINT RightHand
                        {
                            OFFSET -21.865294 0.000000 0.000000
                            CHANNELS 3 Zrotation Xrotation Yrotation
                            JOINT RightHandThumb1
                            {
                                OFFSET -1.853706 -2.106484 2.949078
                                CHANNELS 3 Zrotation Xrotation Yrotation
                                JOINT RightHandThumb2
                                {
                                    OFFSET -2.049154 0.000000 1.336405
                                    CHANNELS 3 Zrotation Xrotation Yrotation
                                    JOINT RightHandThumb3
                                    {
                                        OFFSET -2.672809 0.000000 0.000000
                                        CHANNELS 3 Zrotation Xrotation Yrotation
                                        End Site
                                        {
                                            OFFSET -2.381303 0.000000 0.000000
                                        }
                                    }
                                }
                            }
                            JOINT RightHandIndex1
                            {
                                OFFSET -7.583345 0.000000 2.949078
                                CHANNELS 3 Zrotation Xrotation Yrotation
                                JOINT RightHandIndex2
                                {
                                    OFFSET -4.454682 0.000000 0.000000
                                    CHANNELS 3 Zrotation Xrotation Yrotation
                                    JOINT RightHandIndex3
                                    {
                                        OFFSET -2.227341 0.000000 0.000000
                                        CHANNELS 3 Zrotation Xrotation Yrotation
                                        End Site
                                        {
                                            OFFSET -1.984419 0.000000 0.000000
                                        }
                                    }
                                }
                            }
                            JOINT RightHandMiddle1
                            {
                                OFFSET -7.583345 0.000000 0.977409
                                CHANNELS 3 Zrotation Xrotation Yrotation
                                JOINT RightHandMiddle2
                                {
                                    OFFSET -4.900151 0.000000 0.000000
                                    CHANNELS 3 Zrotation Xrotation Yrotation
                                    JOINT RightHandMiddle3
                                    {
                                        OFFSET -2.672809 0.000000 0.000000
                                        CHANNELS 3 Zrotation Xrotation Yrotation
                                        End Site
                                        {
                                            OFFSET -2.381303 0.000000 0.000000
                                        }
                                    }
                                }
                            }
                            JOINT RightHandRing1
                            {
                                OFFSET -7.162047 0.000000 -0.977409
                                CHANNELS 3 Zrotation Xrotation Yrotation
                                JOINT RightHandRing2
                                {
                                    OFFSET -4.454682 0.000000 0.000000
                                    CHANNELS 3 Zrotation Xrotation Yrotation
                                    JOINT RightHandRing3
                                    {
                                        OFFSET -2.227341 0.000000 0.000000
                                        CHANNELS 3 Zrotation Xrotation Yrotation
                                        End Site
                                        {
                                            OFFSET -1.984419 0.000000 0.000000
                                        }
                                    }
                                }
                            }
                            JOINT RightHandPinky1
                            {
                                OFFSET -6.740750 0.000000 -2.949078
                                CHANNELS 3 Zrotation Xrotation Yrotation
                                JOINT RightHandPinky2
                                {
                                    OFFSET -3.563746 0.000000 0.000000
                                    CHANNELS 3 Zrotation Xrotation Yrotation
                                    JOINT RightHandPinky3
                                    {
                                        OFFSET -1.781873 0.000000 0.000000
                                        CHANNELS 3 Zrotation Xrotation Yrotation
                                        End Site
                                        {
                                            OFFSET -1.587536 0.000000 0.000000
                                        }
                                    }
                                }
                            }
                        }
                    }
                }
            }
        }
    }
    JOINT LeftUpLeg
    {
        OFFSET 8.909365 0.000000 0.000000
        CHANNELS 3 Zrotation Xrotation Yrotation
        JOINT LeftLeg
        {
            OFFSET -0.000000 -38.765560 0.000000
            CHANNELS 3 Zrotation Xrotation Yrotation
            JOINT LeftFoot
            {
                OFFSET -0.000000 -35.244961 0.000000
                CHANNELS 3 Zrotation Xrotation Yrotation
                JOINT LeftToeBase
                {
                    OFFSET -0.000000 -5.791087 13.364048
                    CHANNELS 3 Zrotation Xrotation Yrotation
                    End Site
                    {
                        OFFSET -0.000000 0.000000 3.563746
                    }
                }
            }
        }
    }
    JOINT RightUpLeg
    {
        OFFSET -8.909365 0.000000 0.000000
        CHANNELS 3 Zrotation Xrotation Yrotation
        JOINT RightLeg
        {
            OFFSET -0.000000 -38.765560 0.000000
            CHANNELS 3 Zrotation Xrotation Yrotation
            JOINT RightFoot
            {
                OFFSET -0.000000 -35.244961 0.000000
                CHANNELS 3 Zrotation Xrotation Yrotation
                JOINT RightToeBase
                {
                    OFFSET -0.000000 -5.791087 13.364048
                    CHANNELS 3 Zrotation Xrotation Yrotation
                    End Site
                    {
                        OFFSET -0.000000 0.000000 3.563746
                    }
                }
            }
        }
    }
}
MOTION
Frames:    4
Frame Time:    0.008333
1.682010    81.610489    100.989342    0.974855    0.127709    2.910034    -1.571524    0.421169    -1.917808    -0.998221    4.592225    -0.600288    2.852691    1.605155    -3.223279    2.073556    1.195893    -3.197989    1.972718    4.573573    -10.070629    -88.233315    29.620363    0.091350    11.037253    -10.282290    -0.104639    -4.684585    -32.368267    2.322673    -0.356726    2.405268    2.486612    -0.000000    0.000000    2.620308    -0.000000    0.000000    5.240616    -7.735639    1.509309    -10.973570    -15.761251    0.000000    0.000000    -7.880626    0.000000    0.000000    -20.683783    -0.997634    -3.006244    -41.338142    0.000000    0.000000    -20.669067    0.000000    0.000000    -33.204647    -5.200944    4.222889    -66.915009    0.000000    0.000000    -33.457504    0.000000    0.000000    -45.605328    -11.034457    10.613963    -93.266945    0.000000    0.000000    -46.633472    0.000000    0.000000    -4.699655    -1.669596    -0.396656    98.543694    51.838356    -10.477052    -12.390313    -30.809570    3.503623    13.377864    -37.482418    0.522159    1.168990    -0.421508    1.441562    0.000000    0.000000    0.000000    0.000000    0.000000    0.000000    10.542742    0.094943    0.510128    21.086327    0.000000    -0.000000    10.543164    0.000000    -0.000000    18.687227    -1.465273    -2.705468    37.482487    0.000000    -0.000000    18.741247    0.000000    -0.000000    26.742605    -3.463023    -5.671673    53.878647    0.000000    -0.000000    26.939323    0.000000    -0.000000    34.949158    -5.932374    -8.412197    70.771660    0.000000    -0.000000    35.385830    0.000000    -0.000000    -3.779510    -4.157012    -2.446018    1.041331    10.215710    6.641704    -2.679143    -5.708700    -8.665448    0.264978    0.862837    -0.545016    1.656319    -4.676380    0.363066    0.146180    13.761658    -8.591865    0.385027    -10.138551    3.271497    -0.227284    -1.057625    0.252381    
1.687846    81.609955    100.984177    0.972019    0.121976    2.968911    -1.579685    0.408957    -1.925186    -0.984681    4.619156    -0.602964    2.872179    1.591164    -3.239967    2.057657    1.153077    -3.209732    1.965586    4.590263    -10.072446    -88.298630    29.641039    0.106599    11.014012    -10.211945    -0.085392    -4.743045    -32.319271    2.304176    -0.368842    2.375902    2.435100    -0.000000    0.000000    2.566997    -0.000000    0.000000    5.133994    -7.761174    1.508289    -10.930697    -15.810987    0.000000    0.000000    -7.905495    0.000000    0.000000    -20.700359    -0.975905    -3.017858    -41.370663    0.000000    0.000000    -20.685331    0.000000    0.000000    -33.218605    -5.144255    4.163225    -66.930344    0.000000    0.000000    -33.465172    0.000000    0.000000    -45.623531    -10.932071    10.512327    -93.264549    0.000000    0.000000    -46.632275    0.000000    0.000000    -4.699433    -1.669079    -0.402662    98.522987    51.827488    -10.465986    -12.400260    -30.913561    3.540734    13.404704    -37.566994    0.548173    1.158947    -0.436586    1.458878    0.000000    0.000000    0.000000    0.000000    0.000000    0.000000    10.515067    0.090184    0.485865    21.030897    0.000000    -0.000000    10.515449    0.000000    -0.000000    18.656712    -1.467577    -2.721818    37.421986    0.000000    -0.000000    18.710995    0.000000    -0.000000    26.709650    -3.461647    -5.680620    53.813084    0.000000    -0.000000    26.906540    0.000000    -0.000000    34.914127    -5.926055    -8.414194    70.700859    0.000000    -0.000000    35.350430    0.000000    -0.000000    -3.777624    -4.124047    -2.446986    1.038859    10.144547    6.597822    -2.668619    -5.668213    -8.674065    0.265560    0.862643    -0.546460    1.653012    -4.678768    0.340606    0.147280    13.781796    -8.607334    0.394894    -10.155280    3.251769    -0.228049    -1.055444    0.253813    
1.693892    81.609138    100.979424    0.969483    0.115370    3.022798    -1.587911    0.398377    -1.930515    -0.972285    4.645396    -0.605055    2.892186    1.577290    -3.256332    2.044364    1.116251    -3.221564    1.959716    4.606125    -10.073080    -88.363266    29.666143    0.120805    10.990961    -10.142122    -0.068288    -4.798417    -32.262363    2.286026    -0.392186    2.340870    2.362776    -0.000000    0.000000    2.495131    -0.000000    0.000000    4.990263    -7.815366    1.516443    -10.913065    -15.920463    0.000000    0.000000    -7.960230    0.000000    0.000000    -20.743563    -0.951366    -3.041787    -41.456249    0.000000    0.000000    -20.728119    0.000000    0.000000    -33.255440    -5.093468    4.102683    -66.992020    0.000000    0.000000    -33.496006    0.000000    0.000000    -45.658840    -10.846366    10.420128    -93.301598    0.000000    0.000000    -46.650799    0.000000    0.000000    -4.699625    -1.664574    -0.410260    98.505844    51.807934    -10.454894    -12.409655    -31.021833    3.579708    13.437206    -37.653122    0.580753    1.149061    -0.446647    1.468265    0.000000    0.000000    0.000000    0.000000    0.000000    0.000000    10.487543    0.087466    0.472485    20.975807    0.000000    -0.000000    10.487905    0.000000    -0.000000    18.626667    -1.468070    -2.731041    37.362152    0.000000    -0.000000    18.681074    0.000000    -0.000000    26.677326    -3.459227    -5.686117    53.748486    0.000000    -0.000000    26.874241    0.000000    -0.000000    34.879711    -5.920018    -8.416387    70.631386    0.000000    -0.000000    35.315685    0.000000    -0.000000    -3.776590    -4.090254    -2.453871    1.036089    10.074951    6.563069    -2.658035    -5.628772    -8.681111    0.266022    0.862604    -0.547593    1.649953    -4.683804    0.321885    0.147766    13.808970    -8.621326    0.405513    -10.174963    3.231748    -0.228997    -1.053428    0.255520    
1.700089    81.608002    100.975060    0.967572    0.107815    3.071906    -1.597252    0.389327    -1.934632    -0.959770    4.671126    -0.606690    2.911619    1.563388    -3.271562    2.033577    1.086107    -3.232791    1.954443    4.620629    -10.071615    -88.426834    29.691517    0.133378    10.967742    -10.068655    -0.052135    -4.848945    -32.194771    2.267406    -0.418759    2.304852    2.285271    -0.000000    0.000000    2.419837    -0.000000    0.000000    4.839674    -7.893771    1.535167    -10.936096    -16.081470    0.000000    0.000000    -8.040735    0.000000    0.000000    -20.810446    -0.925142    -3.083015    -41.588825    0.000000    0.000000    -20.794416    0.000000    0.000000    -33.312668    -5.054589    4.045867    -67.096199    0.000000    0.000000    -33.548096    0.000000    0.000000    -45.708038    -10.790380    10.350723    -93.376480    0.000000    0.000000    -46.688240    0.000000    0.000000    -4.700172    -1.657371    -0.419031    98.490181    51.780937    -10.441774    -12.418019    -31.123213    3.618473    13.467541    -37.731861    0.614535    1.141131    -0.449563    1.467552    0.000000    0.000000    0.000000    0.000000    0.000000    0.000000    10.467155    0.086853    0.470108    20.935020    0.000000    -0.000000    10.467510    0.000000    -0.000000    18.602695    -1.467153    -2.733379    37.314217    0.000000    -0.000000    18.657108    0.000000    -0.000000    26.649847    -3.456605    -5.688749    53.693405    0.000000    -0.000000    26.846703    0.000000    -0.000000    34.848656    -5.915535    -8.419716    70.568939    0.000000    -0.000000    35.284470    0.000000    -0.000000    -3.776434    -4.055759    -2.465989    1.032592    10.007258    6.539591    -2.647420    -5.590388    -8.689681    0.266302    0.862557    -0.548284    1.646782    -4.691061    0.309169    0.148506    13.842581    -8.637948    0.416540    -10.197123    3.212949    -0.230154    -1.052096    0.257490    
